<svg width="20" height="20" viewBox="0 0 20 20" fill="none" xmlns="http://www.w3.org/2000/svg">
<path d="M1.25 17.8125C1.25 18.0611 1.34877 18.2996 1.52459 18.4754C1.7004 18.6512 1.93886 18.75 2.1875 18.75H17.8125C18.0611 18.75 18.2996 18.6512 18.4754 18.4754C18.6512 18.2996 18.75 18.0611 18.75 17.8125V6.875H1.25V17.8125ZM13.366 8.28125H14.375V16.0938H13.125V10.0113L11.7426 11.0301L11.0004 10.0238L13.366 8.28125ZM8.67188 13.0977C8.33828 12.7562 7.7832 12.6027 7.4957 12.6027H6.8707V11.3527H7.4957C7.68516 11.3527 8.17578 11.2512 8.4832 10.9367C8.56637 10.8549 8.63202 10.757 8.67614 10.6491C8.72026 10.5411 8.74194 10.4252 8.73984 10.3086C8.73984 9.40117 7.62148 9.375 7.49414 9.375C6.8168 9.375 6.56445 9.78945 6.55391 9.80703L6.23633 10.3453L5.15977 9.70977L5.47773 9.17188C5.77617 8.66406 6.46289 8.125 7.49414 8.125C8.13633 8.125 8.73477 8.31133 9.17891 8.64922C9.70195 9.04766 9.98984 9.63672 9.98984 10.3086C9.99161 10.5871 9.93818 10.8633 9.83265 11.1211C9.72712 11.3789 9.57158 11.6132 9.375 11.8105C9.33008 11.8566 9.28281 11.8996 9.23477 11.9414C9.35212 12.0262 9.46214 12.1206 9.56367 12.2238C9.97617 12.6457 10.1941 13.2297 10.1941 13.9133C10.1941 14.6187 9.89688 15.2414 9.35742 15.668C8.88203 16.0434 8.23438 16.25 7.5332 16.25C6.44453 16.25 5.63945 15.5406 5.28086 14.9336L4.96328 14.3953L6.03984 13.7598L6.35859 14.2969C6.40078 14.3687 6.79414 15 7.53438 15C8.18516 15 8.94531 14.7152 8.94531 13.9133C8.94531 13.6691 8.89766 13.3293 8.67188 13.0977Z" fill="#636A82"/>
<path d="M17.8125 2.5H15.6281V1.25H13.7531V2.5H6.24687V1.25H4.37187V2.5H2.1875C2.06485 2.49897 1.94322 2.52222 1.8296 2.5684C1.71597 2.61459 1.61261 2.6828 1.52547 2.76911C1.43833 2.85542 1.36912 2.95811 1.32185 3.07129C1.27457 3.18446 1.25015 3.30587 1.25 3.42852V5.625H18.75V3.42852C18.7498 3.30587 18.7254 3.18446 18.6782 3.07129C18.6309 2.95811 18.5617 2.85542 18.4745 2.76911C18.3874 2.6828 18.284 2.61459 18.1704 2.5684C18.0568 2.52222 17.9351 2.49897 17.8125 2.5Z" fill="#636A82"/>
</svg>
